<svg width="18" height="19" viewBox="0 0 18 19" fill="none" xmlns="http://www.w3.org/2000/svg">
<path fill-rule="evenodd" clip-rule="evenodd" d="M11.4142 1.56947C11.7592 1.56947 12.0392 1.84947 12.0392 2.19447C12.0392 2.53947 11.7592 2.81947 11.4142 2.81947H5.35752C3.26752 2.81947 1.91669 4.25613 1.91669 6.48113V13.2161C1.91669 15.4703 3.23502 16.8703 5.35752 16.8703H12.5275C14.6175 16.8703 15.9684 15.4361 15.9684 13.2161V7.3503C15.9684 7.0053 16.2484 6.7253 16.5934 6.7253C16.9384 6.7253 17.2184 7.0053 17.2184 7.3503V13.2161C17.2184 16.1495 15.3334 18.1203 12.5275 18.1203H5.35752C2.55169 18.1203 0.666687 16.1495 0.666687 13.2161V6.48113C0.666687 3.54363 2.55169 1.56947 5.35752 1.56947H11.4142ZM13.177 7.26097C13.4504 7.47263 13.5004 7.86513 13.2887 8.13763L10.847 11.2876C10.7454 11.4193 10.5954 11.5051 10.4304 11.5251C10.2637 11.5476 10.0987 11.4993 9.96702 11.3968L7.61869 9.5518L5.50952 12.2926C5.38619 12.4526 5.20119 12.5368 5.01369 12.5368C4.88035 12.5368 4.74619 12.4943 4.63285 12.4076C4.35952 12.1968 4.30785 11.8043 4.51869 11.531L7.01285 8.2893C7.11452 8.1568 7.26535 8.07097 7.43035 8.05013C7.59869 8.02847 7.76369 8.07513 7.89452 8.1793L10.2445 10.0251L12.3004 7.37263C12.512 7.09847 12.9037 7.04763 13.177 7.26097ZM15.6395 0.867718C16.8679 0.867718 17.8662 1.86605 17.8662 3.09438C17.8662 4.32272 16.8679 5.32188 15.6395 5.32188C14.412 5.32188 13.4129 4.32272 13.4129 3.09438C13.4129 1.86605 14.412 0.867718 15.6395 0.867718ZM15.6395 2.11772C15.1012 2.11772 14.6629 2.55522 14.6629 3.09438C14.6629 3.63272 15.1012 4.07188 15.6395 4.07188C16.1779 4.07188 16.6162 3.63272 16.6162 3.09438C16.6162 2.55522 16.1779 2.11772 15.6395 2.11772Z" fill="#A9A9A9"/>
</svg>
