<svg width="19" height="18" viewBox="0 0 19 18" fill="none" xmlns="http://www.w3.org/2000/svg">
<path fill-rule="evenodd" clip-rule="evenodd" d="M4.5479 0.868065C5.47874 0.880565 6.14207 1.57806 6.98124 2.46056C7.18874 2.67806 7.4129 2.91556 7.66374 3.16556C8.87957 4.38223 8.53374 5.37473 8.25457 6.1714C7.95124 7.04056 7.68874 7.79057 9.2604 9.36223C10.8321 10.9339 11.5812 10.6714 12.4496 10.3656C13.2471 10.0872 14.2371 9.7389 15.4554 10.9556C15.7029 11.2031 15.9362 11.4247 16.1529 11.6306C17.0387 12.4739 17.7387 13.1397 17.7505 14.0731C17.7596 14.8681 17.2762 15.6797 16.0829 16.8731L15.5546 16.5147L16.0021 16.9506C15.7379 17.2214 15.0354 17.9431 13.6596 17.9514H13.6346C11.5579 17.9514 8.8504 16.2981 5.58707 13.0356C2.3104 9.75973 0.654571 7.0439 0.667001 4.96306C0.674571 3.58806 1.3954 2.8839 1.66624 2.61973L1.68935 2.59448L1.7454 2.53806C2.94124 1.34223 3.7629 0.850565 4.5479 0.868065ZM4.53207 2.11806H4.5254C4.15119 2.11806 3.58288 2.49306 2.79026 3.26298L2.6311 3.41928L2.6329 3.4189C2.6329 3.4189 2.6193 3.4345 2.59612 3.45814L2.5404 3.5139C2.33874 3.70973 1.92124 4.11723 1.91703 4.96973C1.9104 6.16223 2.69457 8.3764 6.4704 12.1514C10.2279 15.9081 12.4387 16.7014 13.6346 16.7014H13.6521C14.5046 16.6964 14.9112 16.2789 15.1071 16.0781C15.1662 16.0172 15.2146 15.9714 15.2487 15.9439C16.0796 15.1081 16.5046 14.4872 16.5004 14.0881C16.4954 13.6814 15.9896 13.2014 15.2904 12.5356C15.0679 12.3247 14.8262 12.0939 14.5712 11.8389C13.9096 11.1797 13.5837 11.2922 12.8629 11.5456C11.8671 11.8947 10.5029 12.3731 8.37707 10.2456C6.2504 8.11973 6.72707 6.75556 7.07457 5.7589C7.32624 5.0389 7.44124 4.7114 6.7804 4.04973C6.52207 3.7914 6.28957 3.5464 6.0754 3.3214C5.41374 2.6264 4.93624 2.1239 4.53207 2.11806ZM11.7055 3.83265C13.4397 4.16931 14.7788 5.50765 15.1163 7.24265C15.1822 7.58265 14.9613 7.91015 14.623 7.97598C14.5822 7.98348 14.5422 7.98765 14.5022 7.98765C14.2088 7.98765 13.948 7.78098 13.8897 7.48265C13.6497 6.24931 12.6988 5.29848 11.4672 5.05931C11.128 4.99348 10.9072 4.66598 10.973 4.32681C11.0388 3.98765 11.3722 3.76598 11.7055 3.83265ZM11.6556 0.872815C15.0539 1.25031 17.6931 3.88615 18.0739 7.28365C18.1122 7.62698 17.8656 7.93615 17.5231 7.97448C17.4997 7.97698 17.4756 7.97865 17.4522 7.97865C17.1381 7.97865 16.8681 7.74281 16.8322 7.42365C16.5164 4.61031 14.3314 2.42698 11.5172 2.11448C11.1747 2.07615 10.9272 1.76781 10.9656 1.42448C11.0031 1.08198 11.3089 0.829482 11.6556 0.872815Z" fill="#A9A9A9"/>
</svg>
