<svg width="18" height="18" viewBox="0 0 18 18" fill="none" xmlns="http://www.w3.org/2000/svg">
<path fill-rule="evenodd" clip-rule="evenodd" d="M8.4236 0.867706C10.4619 0.867706 12.1203 2.52604 12.1203 4.56437V5.34104C12.1203 5.68604 11.8403 5.96604 11.4953 5.96604C11.1503 5.96604 10.8703 5.68604 10.8703 5.34104V4.56437C10.8703 3.21437 9.77276 2.11771 8.4236 2.11771H4.3611C3.0136 2.11771 1.91693 3.21437 1.91693 4.56437V13.8385C1.91693 15.1877 3.0136 16.2844 4.3611 16.2844H8.43276C9.7761 16.2844 10.8703 15.191 10.8703 13.8477V13.0619C10.8703 12.7169 11.1503 12.4369 11.4953 12.4369C11.8403 12.4369 12.1203 12.7169 12.1203 13.0619V13.8477C12.1203 15.881 10.4653 17.5344 8.43276 17.5344H4.3611C2.32443 17.5344 0.666931 15.8769 0.666931 13.8385V4.56437C0.666931 2.52604 2.32443 0.867706 4.3611 0.867706H8.4236ZM15.157 6.32937L17.597 8.75854C17.6188 8.78014 17.6383 8.8026 17.6561 8.82637L17.597 8.75854C17.6265 8.78765 17.6528 8.81946 17.6756 8.85338C17.6856 8.86874 17.6953 8.88464 17.7042 8.90097C17.7115 8.91373 17.7182 8.92705 17.7244 8.94059C17.7297 8.95256 17.7347 8.96453 17.7394 8.97668C17.7457 8.99252 17.7512 9.0088 17.756 9.0253C17.7597 9.03829 17.763 9.05125 17.7659 9.06437C17.7696 9.08029 17.7726 9.0963 17.7749 9.11244C17.7762 9.12293 17.7775 9.13393 17.7785 9.145C17.7804 9.16401 17.7812 9.18249 17.7812 9.20104L17.7769 9.25271L17.7752 9.28581C17.775 9.28722 17.7748 9.28864 17.7746 9.29005L17.7812 9.20104C17.7812 9.2473 17.7761 9.2931 17.7661 9.33764C17.763 9.35082 17.7597 9.36379 17.7559 9.37658C17.7512 9.39328 17.7457 9.40956 17.7395 9.42558C17.7347 9.43755 17.7297 9.44952 17.7243 9.4613C17.7182 9.47503 17.7115 9.48835 17.7043 9.50142C17.6953 9.51744 17.6856 9.53333 17.6753 9.54874C17.6694 9.55788 17.663 9.5669 17.6563 9.57575C17.6365 9.60186 17.6149 9.62641 17.5915 9.64915L15.157 12.0735C15.0353 12.1952 14.8753 12.256 14.7162 12.256C14.5562 12.256 14.3953 12.1952 14.2737 12.0719C14.0303 11.8269 14.0312 11.4319 14.2753 11.1885L15.6419 9.82604H7.12176C6.77676 9.82604 6.49676 9.54604 6.49676 9.20104C6.49676 8.85604 6.77676 8.57604 7.12176 8.57604H15.6436L14.2753 7.21437C14.0312 6.97104 14.0295 6.57604 14.2737 6.33104C14.517 6.08604 14.912 6.08604 15.157 6.32937Z" fill="#A9A9A9"/>
</svg>
