<svg width="18" height="19" viewBox="0 0 18 19" fill="none" xmlns="http://www.w3.org/2000/svg">
<path fill-rule="evenodd" clip-rule="evenodd" d="M7.03549 0.867716C7.82799 0.86855 8.58299 1.24688 9.05632 1.87938L9.81549 2.88938C10.0563 3.20938 10.4388 3.40022 10.8388 3.40105H13.1963C16.4147 3.40105 17.9138 5.05022 17.9138 8.59105L17.8905 12.7302C17.8897 16.0369 15.8347 18.0919 12.5263 18.0919H6.04132C2.72632 18.0919 0.666321 16.036 0.666321 12.7277V6.22855C0.666321 2.67105 2.24882 0.867716 5.36882 0.867716H7.03549ZM7.03465 2.11772H5.36882C2.94882 2.11772 1.91632 3.34772 1.91632 6.22855V12.7277C1.91632 15.381 3.38132 16.8419 6.04132 16.8419H12.5263C15.1797 16.8419 16.6405 15.381 16.6405 12.7277V12.7252L16.6638 8.58772C16.6638 5.75522 15.6922 4.65105 13.1963 4.65105H10.838C10.0472 4.65022 9.29215 4.27272 8.81715 3.64105L8.05632 2.62938C7.81715 2.30855 7.43465 2.11855 7.03465 2.11772ZM12.9298 11.045C13.2748 11.045 13.5548 11.325 13.5548 11.67C13.5548 12.015 13.2748 12.295 12.9298 12.295H5.65065C5.30565 12.295 5.02565 12.015 5.02565 11.67C5.02565 11.325 5.30565 11.045 5.65065 11.045H12.9298Z" fill="#A9A9A9"/>
</svg>
