<svg width="16" height="18" viewBox="0 0 16 18" fill="none" xmlns="http://www.w3.org/2000/svg">
<path fill-rule="evenodd" clip-rule="evenodd" d="M11.2573 0.867714C13.8773 0.867714 15.6373 2.66188 15.6373 5.33188V12.9952C15.6373 15.6885 13.9314 17.4402 11.2914 17.4569L4.88059 17.4594C2.26059 17.4594 0.499756 15.6652 0.499756 12.9952V5.33188C0.499756 2.63771 2.20559 0.886881 4.84559 0.871047L11.2564 0.867714H11.2573ZM11.2573 2.11771L4.84976 2.12105C2.90976 2.13271 1.74976 3.33271 1.74976 5.33188V12.9952C1.74976 15.0077 2.92059 16.2094 4.87976 16.2094L11.2873 16.2069C13.2273 16.1952 14.3873 14.9935 14.3873 12.9952V5.33188C14.3873 3.31938 13.2173 2.11771 11.2573 2.11771ZM11.0965 12.0958C11.4415 12.0958 11.7215 12.3758 11.7215 12.7208C11.7215 13.0658 11.4415 13.3458 11.0965 13.3458H5.07984C4.73484 13.3458 4.45484 13.0658 4.45484 12.7208C4.45484 12.3758 4.73484 12.0958 5.07984 12.0958H11.0965ZM11.0965 8.60705C11.4415 8.60705 11.7215 8.88705 11.7215 9.23205C11.7215 9.57705 11.4415 9.85705 11.0965 9.85705H5.07984C4.73484 9.85705 4.45484 9.57705 4.45484 9.23205C4.45484 8.88705 4.73484 8.60705 5.07984 8.60705H11.0965ZM7.37542 5.12638C7.72042 5.12638 8.00042 5.40638 8.00042 5.75138C8.00042 6.09638 7.72042 6.37638 7.37542 6.37638H5.07959C4.73459 6.37638 4.45459 6.09638 4.45459 5.75138C4.45459 5.40638 4.73459 5.12638 5.07959 5.12638H7.37542Z" fill="#A9A9A9"/>
</svg>
