<svg width="17" height="17" viewBox="0 0 17 17" fill="none" xmlns="http://www.w3.org/2000/svg">
<path d="M15.9617 10.795C14.5977 11.3435 13.1026 11.479 11.6622 11.1848C10.2218 10.8905 8.8997 10.1794 7.86016 9.13985C6.82062 8.10031 6.10951 6.77818 5.81524 5.33779C5.52097 3.89741 5.65651 2.40231 6.20501 1.03833C4.58977 1.68894 3.25115 2.88116 2.41862 4.4106C1.58609 5.94004 1.31151 7.71145 1.64194 9.42116C1.97238 11.1309 2.88725 12.6724 4.22972 13.7815C5.5722 14.8906 7.25867 15.4981 9.00002 15.5C10.4974 15.5 11.9606 15.052 13.2013 14.2135C14.442 13.375 15.4033 12.1844 15.9617 10.795Z" stroke="#37474F" stroke-width="2" stroke-linecap="round" stroke-linejoin="round"/>
</svg>
