<svg width="24" height="25" viewBox="0 0 24 25" fill="none" xmlns="http://www.w3.org/2000/svg">
<path d="M12 14.59C13.1046 14.59 14 13.6946 14 12.59C14 11.4854 13.1046 10.59 12 10.59C10.8954 10.59 10 11.4854 10 12.59C10 13.6946 10.8954 14.59 12 14.59Z" stroke="black" stroke-width="2" stroke-linecap="round" stroke-linejoin="round"/>
<path d="M16.2399 8.35C16.7978 8.90724 17.2404 9.56897 17.5423 10.2974C17.8442 11.0258 17.9997 11.8065 17.9997 12.595C17.9997 13.3835 17.8442 14.1643 17.5423 14.8926C17.2404 15.621 16.7978 16.2828 16.2399 16.84M7.75994 16.83C7.20208 16.2728 6.75953 15.611 6.45758 14.8826C6.15564 14.1543 6.00022 13.3735 6.00022 12.585C6.00022 11.7965 6.15564 11.0158 6.45758 10.2874C6.75953 9.55897 7.20208 8.89724 7.75994 8.34M19.0699 5.52C20.9446 7.39528 21.9978 9.93836 21.9978 12.59C21.9978 15.2416 20.9446 17.7847 19.0699 19.66M4.92994 19.66C3.05523 17.7847 2.00208 15.2416 2.00208 12.59C2.00208 9.93836 3.05523 7.39528 4.92994 5.52" stroke="black" stroke-width="2" stroke-linecap="round" stroke-linejoin="round"/>
</svg>
