<svg width="17" height="19" viewBox="0 0 17 19" fill="none" xmlns="http://www.w3.org/2000/svg">
<path fill-rule="evenodd" clip-rule="evenodd" d="M9.22267 0.868134C9.81933 0.868134 10.3993 1.11313 10.8152 1.53897C11.2302 1.9673 11.4593 2.5548 11.4418 3.15063C11.4435 3.2848 11.4877 3.4398 11.5677 3.57563C11.7002 3.80063 11.9093 3.95897 12.1577 4.02397C12.406 4.08563 12.666 4.0523 12.8868 3.92147C13.9535 3.3123 15.311 3.6773 15.9202 4.73563L16.4393 5.6348C16.4527 5.65897 16.4643 5.6823 16.4743 5.70647C17.026 6.74897 16.6577 8.06147 15.6327 8.66063C15.4835 8.74647 15.3627 8.86647 15.2793 9.01147C15.1502 9.23563 15.1143 9.5023 15.1793 9.7473C15.246 9.9973 15.4052 10.2048 15.6293 10.3331C16.1352 10.624 16.5127 11.114 16.6635 11.6798C16.8143 12.2448 16.7318 12.8581 16.4377 13.364L15.8843 14.2856C15.2752 15.3323 13.9177 15.6948 12.8618 15.0848C12.721 15.004 12.5585 14.9598 12.3968 14.9556H12.3918C12.151 14.9556 11.9035 15.0581 11.7235 15.2373C11.541 15.4198 11.441 15.6631 11.4427 15.9215C11.4368 17.1456 10.441 18.1356 9.22267 18.1356H8.1785C6.95433 18.1356 5.9585 17.1406 5.9585 15.9165C5.95683 15.7656 5.9135 15.609 5.83266 15.4731C5.70183 15.2448 5.49017 15.0815 5.246 15.0165C5.0035 14.9515 4.73766 14.9873 4.51933 15.114C3.996 15.4056 3.38016 15.4765 2.81683 15.3181C2.25433 15.159 1.7685 14.7723 1.4835 14.2598L0.962665 13.3623C0.353498 12.3056 0.715998 10.9515 1.771 10.3415C2.07016 10.169 2.256 9.8473 2.256 9.5023C2.256 9.1573 2.07016 8.8348 1.771 8.6623C0.715165 8.04897 0.353498 6.69147 0.961831 5.6348L1.52683 4.7073C2.12766 3.6623 3.486 3.29397 4.54516 3.9023C4.68933 3.98813 4.846 4.03147 5.00517 4.03313C5.52433 4.03313 5.9585 3.6048 5.96683 3.07813C5.9635 2.4973 6.19266 1.9398 6.61016 1.51897C7.02933 1.09897 7.586 0.868134 8.1785 0.868134H9.22267ZM9.22267 2.11813H8.1785C7.92017 2.11813 7.6785 2.21897 7.496 2.40063C7.31433 2.58313 7.21517 2.82563 7.21683 3.08397C7.19933 4.3023 6.2035 5.28313 4.99766 5.28313C4.611 5.27897 4.2385 5.1748 3.91516 4.98147C3.461 4.72313 2.86766 4.8823 2.60183 5.3448L2.03766 6.2723C1.77933 6.72063 1.93766 7.31313 2.39766 7.58063C3.08016 7.97563 3.506 8.7123 3.506 9.5023C3.506 10.2923 3.08016 11.0281 2.396 11.424C1.9385 11.689 1.78016 12.2781 2.04516 12.7365L2.571 13.6431C2.701 13.8773 2.9135 14.0465 3.15933 14.1156C3.40433 14.184 3.67433 14.1548 3.89933 14.0298C4.23016 13.8356 4.61516 13.7348 5.00183 13.7348C5.19266 13.7348 5.3835 13.759 5.57017 13.809C6.1335 13.9606 6.62266 14.3373 6.91266 14.8431C7.101 15.1606 7.20516 15.5315 7.2085 15.9098C7.2085 16.4515 7.6435 16.8856 8.1785 16.8856H9.22267C9.75517 16.8856 10.1902 16.454 10.1927 15.9215C10.1893 15.3331 10.4193 14.774 10.8402 14.3531C11.2552 13.9381 11.8352 13.689 12.4152 13.7056C12.7952 13.7148 13.161 13.8173 13.4835 14.0006C13.9477 14.2665 14.5402 14.1081 14.8085 13.6498L15.3618 12.7273C15.4852 12.5148 15.521 12.2481 15.4552 12.0023C15.3902 11.7565 15.2268 11.5431 15.0068 11.4173C14.4918 11.1206 14.1243 10.6423 13.9718 10.069C13.821 9.50647 13.9035 8.8923 14.1977 8.38647C14.3893 8.05313 14.6702 7.7723 15.0068 7.57897C15.4585 7.3148 15.6168 6.72397 15.3543 6.26397C15.3435 6.24563 15.3335 6.22647 15.3252 6.20647L14.8368 5.3598C14.571 4.8973 13.9793 4.73813 13.5152 5.0023C13.0135 5.29897 12.4168 5.38397 11.8435 5.23313C11.271 5.0848 10.791 4.7223 10.4918 4.21063C10.3002 3.89063 10.196 3.51813 10.1927 3.13897C10.2002 2.85397 10.1002 2.59813 9.9185 2.41063C9.73767 2.22397 9.4835 2.11813 9.22267 2.11813ZM8.70425 6.67988C10.2601 6.67988 11.5259 7.94655 11.5259 9.50238C11.5259 11.0582 10.2601 12.3232 8.70425 12.3232C7.14842 12.3232 5.88258 11.0582 5.88258 9.50238C5.88258 7.94655 7.14842 6.67988 8.70425 6.67988ZM8.70425 7.92988C7.83758 7.92988 7.13258 8.63572 7.13258 9.50238C7.13258 10.3691 7.83758 11.0732 8.70425 11.0732C9.57092 11.0732 10.2759 10.3691 10.2759 9.50238C10.2759 8.63572 9.57092 7.92988 8.70425 7.92988Z" fill="#A9A9A9"/>
</svg>
