<svg width="18" height="17" viewBox="0 0 18 17" fill="none" xmlns="http://www.w3.org/2000/svg">
<path fill-rule="evenodd" clip-rule="evenodd" d="M6.99335 10.8319C9.70919 10.8319 13.32 11.1377 13.32 13.7836C13.32 16.5707 9.11261 16.7379 7.30786 16.7479L6.65261 16.7479C4.7283 16.7379 0.666687 16.5717 0.666687 13.8002C0.666687 11.01 4.8741 10.8426 6.67885 10.8325L6.89568 10.8319C6.92947 10.8319 6.96205 10.8319 6.99335 10.8319ZM6.99335 12.0819C4.67752 12.0819 1.91669 12.3794 1.91669 13.8002C1.91669 14.9269 3.62502 15.4986 6.99335 15.4986C10.3617 15.4986 12.07 14.9211 12.07 13.7836C12.07 12.6544 10.3617 12.0819 6.99335 12.0819ZM14.5889 10.4426C16.8439 10.7801 17.3164 11.8243 17.3164 12.6401C17.3164 13.2476 17.0539 14.0701 15.8014 14.5443C15.7289 14.5718 15.6539 14.5851 15.5798 14.5851C15.3273 14.5851 15.0898 14.431 14.9956 14.1818C14.8731 13.8593 15.0356 13.4976 15.3581 13.376C16.0664 13.1076 16.0664 12.7801 16.0664 12.6401C16.0664 12.1676 15.5073 11.8443 14.4048 11.6801C14.0631 11.6285 13.8273 11.3101 13.8781 10.9693C13.9298 10.6276 14.2539 10.3985 14.5889 10.4426ZM6.99335 0.867718C9.35252 0.867718 11.2726 2.78772 11.2726 5.14688C11.2775 6.28355 10.8367 7.35688 10.0334 8.16522C9.23169 8.97438 8.16085 9.42188 7.02169 9.42605H6.99335C4.63335 9.42605 2.71335 7.50605 2.71335 5.14688C2.71335 2.78772 4.63335 0.867718 6.99335 0.867718ZM12.8997 1.80422C14.5372 2.07255 15.7255 3.47338 15.7255 5.13422C15.7222 6.80505 14.4747 8.24005 12.823 8.47172C12.7939 8.47588 12.7647 8.47755 12.7355 8.47755C12.4289 8.47755 12.1614 8.25172 12.1172 7.93922C12.0697 7.59755 12.3072 7.28088 12.6489 7.23338C13.6889 7.08755 14.4739 6.18505 14.4755 5.13338C14.4755 4.08838 13.7272 3.20672 12.698 3.03838C12.3572 2.98172 12.1264 2.66088 12.1822 2.32005C12.238 1.97922 12.5605 1.75005 12.8997 1.80422ZM6.99335 2.11772C5.32252 2.11772 3.96335 3.47688 3.96335 5.14688C3.96335 6.81688 5.32252 8.17605 6.99335 8.17605H7.01919C7.82252 8.17272 8.57919 7.85688 9.14669 7.28438C9.71502 6.71355 10.0259 5.95438 10.0225 5.14938C10.0225 3.47688 8.66335 2.11772 6.99335 2.11772Z" fill="#A9A9A9"/>
</svg>
